<?xml version="1.0" encoding="UTF-8"?>
<svg id="Layer_2" data-name="Layer 2" xmlns="http://www.w3.org/2000/svg" viewBox="0 0 359.14 378">
  <defs>
    <style>
      .cls-1 {
        fill: #fff;
      }
    </style>
  </defs>
  <g id="Capa_1" data-name="Capa 1">
    <g>
      <g>
        <path class="cls-1" d="M97.15,282.19h7.29v94.73h-20.24v-51.14l-23.75,29.69h-2.56l-23.75-29.69v51.14H13.89v-94.73h7.42l37.92,44.94,37.92-44.94Z"/>
        <path class="cls-1" d="M184.32,356c0,5.53-.27,8.5,6.21,8.1v12.14c-8.77,1.89-21.46,2.56-21.46-10.79-3.64,8.1-12.01,12.55-20.65,12.55-20.11-.4-29.42-15.92-29.42-34.41.67-22,15.65-33.6,37.65-33.2,9.58.14,19.03,2.43,27.66,6.07v39.54ZM165.97,327.4c-3.64-1.48-7.56-1.89-10.8-1.89-10.26,0-16.87,5.67-17.27,18.08,0,10.26,4.86,17.81,14.57,17.68,9.04,0,13.09-7.15,13.5-17v-16.87Z"/>
        <path class="cls-1" d="M199.16,311.61c9.58-1.76,24.83-2.7,24.83,9.85,4.18-7.69,11.88-11.07,20.51-11.07,18.35,0,26.04,12.55,25.64,28.74v17.68c0,6.07.27,9.04,6.88,8.64v11.07c-12.82,3.24-25.64,1.62-25.64-14.57v-22.81c.14-9.04-5.67-13.76-12.55-13.76-7.02-.41-13.63,5.13-13.63,14.17v37.38h-18.89v-44.94c0-7.15.14-9.72-7.15-9.31v-11.07Z"/>
        <path class="cls-1" d="M350.7,356c0,5.53-.27,8.5,6.21,8.1v12.14c-8.77,1.89-21.46,2.56-21.46-10.79-3.64,8.1-12.01,12.55-20.65,12.55-20.11-.4-29.42-15.92-29.42-34.41.67-22,15.65-33.6,37.65-33.2,9.58.14,19.03,2.43,27.66,6.07v39.54ZM332.35,327.4c-3.64-1.48-7.56-1.89-10.8-1.89-10.26,0-16.87,5.67-17.27,18.08,0,10.26,4.86,17.81,14.57,17.68,9.04,0,13.09-7.15,13.5-17v-16.87ZM312.92,300.68v-1.75l9.58-19.7,16.19,5.94v1.48l-11.34,14.03h-14.44Z"/>
      </g>
      <path class="cls-1" d="M352.16,240.4h-160.3c8.33-17.33,26.06-29.33,46.54-29.33h99.61l-6.98-14.46h-92.63c-20.87,0-39.49,9.73-51.6,24.89v-33.58l34.83-28.32c3.6-2.93,5.65-7.34,5.57-11.98L224.5,0h-14.46l2.83,74.81c-9.93.1-19.02,3.75-26.07,9.75v-42.39h-14.46v42.39c-7.05-6-16.13-9.65-26.07-9.75L149.1,0h-14.46l-2.7,147.62c-.08,4.64,1.97,9.05,5.57,11.98l34.83,28.32v33.58c-12.11-15.16-30.74-24.89-51.6-24.89H28.11l-6.98,14.46h99.61c20.48,0,38.22,12,46.54,29.33H6.98l-6.98,14.46h359.14l-6.98-14.46ZM186.8,115.72h0c0-14.46,11.66-26.24,26.07-26.45v26.53c-9.93.1-19.02,3.75-26.07,9.75v-9.82ZM186.8,156.71h0c0-14.46,11.66-26.24,26.07-26.45v17.83l-26.07,21.19v-12.57ZM146.27,89.27c14.41.21,26.06,11.99,26.07,26.45v9.83c-7.05-6-16.13-9.65-26.07-9.75v-26.53ZM146.27,148.08v-17.83c14.41.21,26.06,11.99,26.07,26.45v12.57l-26.07-21.19Z"/>
    </g>
  </g>
</svg>