<?xml version="1.0" encoding="UTF-8"?>
<svg id="Layer_2" data-name="Layer 2" xmlns="http://www.w3.org/2000/svg" viewBox="0 0 448.43 83.82">
  <defs>
    <style>
      .cls-1 {
        fill: #0c1634;
      }
    </style>
  </defs>
  <g id="Capa_1" data-name="Capa 1">
    <g>
      <path class="cls-1" d="M9.89,32.63c2,.88,4.19,1.31,6.57,1.31,1.5,0,2.86-.14,4.08-.42,1.22-.28,2.36-.67,3.42-1.17,1.06-.5,2.05-1.1,2.98-1.81.92-.7,1.8-1.49,2.65-2.37l-2.44-2.39c-1.56,1.5-3.16,2.67-4.78,3.49-1.62.83-3.56,1.24-5.81,1.24-1.81,0-3.49-.35-5.04-1.05-1.55-.7-2.89-1.67-4.03-2.88-1.14-1.22-2.03-2.66-2.67-4.31-.64-1.66-.96-3.44-.96-5.35s.32-3.68.96-5.32c.64-1.64,1.53-3.07,2.67-4.29,1.14-1.22,2.49-2.17,4.03-2.86,1.55-.69,3.23-1.03,5.04-1.03,2.25,0,4.18.42,5.79,1.27,1.61.84,3.12,1.92,4.52,3.24l2.53-2.72c-.81-.78-1.66-1.49-2.53-2.13-.88-.64-1.83-1.19-2.86-1.64-1.03-.45-2.15-.8-3.35-1.05-1.2-.25-2.55-.38-4.05-.38-2.41,0-4.63.44-6.66,1.34-2.03.89-3.78,2.11-5.25,3.66-1.47,1.55-2.62,3.35-3.45,5.42-.83,2.06-1.24,4.27-1.24,6.61s.41,4.59,1.24,6.66c.83,2.06,1.98,3.85,3.45,5.37,1.47,1.52,3.2,2.71,5.2,3.59Z"/>
      <path class="cls-1" d="M49.19,33.9c2.06,0,3.93-.3,5.6-.91,1.67-.61,3.11-1.52,4.31-2.74s2.13-2.73,2.79-4.55c.66-1.81.98-3.92.98-6.33V.56h-3.7v19.08c0,3.6-.89,6.3-2.67,8.11-1.78,1.81-4.19,2.72-7.22,2.72s-5.62-.95-7.39-2.86c-1.77-1.91-2.65-4.64-2.65-8.21V.56h-3.7v19.08c0,2.31.33,4.36.98,6.14.66,1.78,1.59,3.27,2.79,4.48,1.2,1.2,2.64,2.11,4.31,2.72,1.67.61,3.52.91,5.56.91Z"/>
      <polygon class="cls-1" points="99.35 33.38 103.06 33.38 103.06 .56 99.31 .56 87.35 18.47 75.39 .56 71.64 .56 71.64 33.38 75.25 33.38 75.25 6.85 87.21 24.38 87.4 24.38 99.35 6.8 99.35 33.38"/>
      <path class="cls-1" d="M136.73,19.13c-.62-.62-1.37-1.16-2.22-1.62-.86-.45-1.77-.82-2.74-1.1.65-.28,1.29-.63,1.89-1.05.61-.42,1.16-.95,1.66-1.57.5-.62.9-1.34,1.19-2.16.3-.81.44-1.77.44-2.86,0-1.25-.25-2.38-.75-3.4-.5-1.02-1.22-1.88-2.15-2.58-.94-.7-2.06-1.25-3.37-1.64-1.31-.39-2.78-.59-4.4-.59h-13.95v32.82h14.56c1.78,0,3.4-.2,4.87-.61,1.47-.41,2.72-.99,3.77-1.76,1.05-.77,1.85-1.71,2.41-2.84.56-1.12.84-2.39.84-3.8,0-1.13-.19-2.13-.56-3-.38-.87-.87-1.62-1.5-2.25ZM116.05,3.84h9.96c2.34,0,4.13.49,5.38,1.46,1.25.97,1.87,2.29,1.87,3.96,0,1.95-.7,3.42-2.11,4.43-1.4,1-3.21,1.51-5.42,1.51h-9.68V3.84ZM132.93,28.55c-1.43,1.04-3.4,1.55-5.89,1.55h-10.99v-11.63h10.34c2.87,0,5.03.5,6.5,1.48,1.47.99,2.2,2.39,2.2,4.21s-.72,3.34-2.15,4.38Z"/>
      <path class="cls-1" d="M166.82,18.86c1.09-.53,2.04-1.2,2.84-1.99.8-.8,1.41-1.74,1.85-2.82.44-1.08.66-2.31.66-3.68,0-1.47-.28-2.81-.84-4.01-.56-1.2-1.36-2.24-2.39-3.1-1.03-.86-2.27-1.52-3.73-1.99-1.45-.47-3.09-.7-4.9-.7h-14.11v32.82h3.7v-12.75h9.38l9.52,12.75h4.55l-10.08-13.4c1.28-.22,2.47-.59,3.56-1.13ZM149.9,17.35V3.98h10.15c2.66,0,4.73.57,6.2,1.72,1.47,1.15,2.21,2.75,2.21,4.82,0,1.07-.21,2.02-.63,2.87-.42.85-1.01,1.56-1.76,2.14-.75.58-1.65,1.03-2.68,1.34-1.03.31-2.16.47-3.38.47h-10.11Z"/>
      <polygon class="cls-1" points="204.05 30.01 183.8 30.01 183.8 18.52 201.71 18.52 201.71 15.15 183.8 15.15 183.8 3.94 203.82 3.94 203.82 .56 180.09 .56 180.09 33.38 204.05 33.38 204.05 30.01"/>
      <polygon class="cls-1" points="241.33 24.38 253.28 6.8 253.28 33.38 256.99 33.38 256.99 .56 253.24 .56 241.28 18.47 229.32 .56 225.57 .56 225.57 33.38 229.18 33.38 229.18 6.85 241.14 24.38 241.33 24.38"/>
      <path class="cls-1" d="M269.53,30.27c1.2,1.2,2.64,2.11,4.31,2.72,1.67.61,3.52.91,5.56.91s3.93-.3,5.6-.91c1.67-.61,3.11-1.52,4.31-2.74s2.13-2.73,2.79-4.55c.66-1.81.98-3.92.98-6.33V.56h-3.7v19.08c0,3.6-.89,6.3-2.67,8.11-1.78,1.81-4.19,2.72-7.22,2.72s-5.62-.95-7.39-2.86c-1.77-1.91-2.65-4.64-2.65-8.21V.56h-3.7v19.08c0,2.31.33,4.36.98,6.14.66,1.78,1.59,3.27,2.79,4.48Z"/>
      <polygon class="cls-1" points="326.01 26.87 305.33 .56 301.86 .56 301.86 33.38 305.47 33.38 305.47 6.47 326.66 33.38 329.62 33.38 329.62 .56 326.01 .56 326.01 26.87"/>
      <path class="cls-1" d="M357.35,32.12c2.14-.84,3.99-2,5.53-3.47,1.55-1.47,2.74-3.21,3.59-5.23.84-2.02,1.27-4.18,1.27-6.49s-.42-4.47-1.27-6.47c-.84-2-2.04-3.74-3.59-5.2-1.55-1.47-3.39-2.62-5.53-3.45-2.14-.83-4.49-1.24-7.06-1.24h-11.39v32.82h11.39c2.56,0,4.92-.42,7.06-1.27ZM342.61,3.98h7.69c2.06,0,3.94.34,5.63,1.01,1.69.67,3.12,1.59,4.29,2.77,1.17,1.17,2.08,2.55,2.72,4.15.64,1.59.96,3.3.96,5.11s-.32,3.55-.96,5.11c-.64,1.56-1.55,2.93-2.72,4.1-1.17,1.17-2.6,2.09-4.29,2.74-1.69.66-3.56.98-5.63.98h-7.69V3.98Z"/>
      <rect class="cls-1" x="375.9" y=".56" width="3.7" height="32.82"/>
      <path class="cls-1" d="M394.09,24.71h17.86l3.85,8.67h3.99L404.83.33h-3.47l-14.96,33.06h3.8l3.89-8.67ZM403.04,4.69l7.46,16.74h-14.96l7.5-16.74Z"/>
      <polygon class="cls-1" points="429.96 .56 426.25 .56 426.25 33.38 448.43 33.38 448.43 29.96 429.96 29.96 429.96 .56"/>
      <path class="cls-1" d="M29.21,52.88c-1.66-1.58-3.65-2.81-5.95-3.7-2.3-.89-4.83-1.33-7.58-1.33H3.44v35.27h12.24c2.75,0,5.28-.45,7.58-1.36,2.3-.91,4.28-2.15,5.95-3.73,1.66-1.58,2.95-3.45,3.85-5.62.91-2.17,1.36-4.49,1.36-6.98s-.45-4.8-1.36-6.95c-.91-2.15-2.19-4.01-3.85-5.59ZM29.26,71.02c-.69,1.68-1.66,3.15-2.92,4.41-1.26,1.26-2.79,2.24-4.61,2.95s-3.83,1.06-6.05,1.06H7.42v-27.91h8.26c2.22,0,4.23.36,6.05,1.08,1.81.72,3.35,1.71,4.61,2.97,1.26,1.26,2.23,2.75,2.92,4.46.69,1.71,1.03,3.54,1.03,5.49s-.34,3.81-1.03,5.49Z"/>
      <polygon class="cls-1" points="46.82 67.14 66.07 67.14 66.07 63.51 46.82 63.51 46.82 51.47 68.34 51.47 68.34 47.84 42.84 47.84 42.84 83.11 68.59 83.11 68.59 79.48 46.82 79.48 46.82 67.14"/>
      <path class="cls-1" d="M102.3,47.84h-13.61v35.27h13.4c12.7,0,20.11-7.56,20.11-17.74v-.1c0-10.18-7.31-17.44-19.9-17.44ZM112.17,65.52c0,5.69-3.88,8.92-9.73,8.92h-3.98v-17.94h3.98c5.85,0,9.73,3.27,9.73,8.92v.1Z"/>
      <rect class="cls-1" x="127.44" y="47.84" width="9.83" height="35.27"/>
      <path class="cls-1" d="M158.67,61.14c-4.89-1.11-6.1-1.81-6.1-3.43v-.1c0-1.26,1.16-2.27,3.53-2.27,3.12,0,6.65,1.21,9.88,3.48l4.89-6.9c-3.83-3.07-8.52-4.69-14.51-4.69-8.46,0-13.65,4.74-13.65,11.29v.1c0,7.26,5.79,9.37,13.3,11.09,4.79,1.11,5.95,1.91,5.95,3.38v.1c0,1.51-1.41,2.42-4.03,2.42-4.08,0-7.96-1.46-11.44-4.23l-5.44,6.5c4.33,3.88,10.28,5.84,16.53,5.84,8.57,0,14.26-4.28,14.26-11.49v-.1c0-6.6-5.04-9.22-13.15-10.98Z"/>
      <path class="cls-1" d="M193.84,74.9c-4.94,0-8.42-4.13-8.42-9.42v-.1c0-5.14,3.48-9.32,8.42-9.32,3.38,0,5.69,1.61,7.71,4.13l7.36-5.69c-3.12-4.33-7.76-7.36-14.96-7.36-10.68,0-18.59,8.06-18.59,18.34v.1c0,10.53,8.11,18.24,18.19,18.24,7.81,0,12.3-3.38,15.62-7.96l-7.36-5.24c-2.12,2.57-4.28,4.28-7.96,4.28Z"/>
      <rect class="cls-1" x="213.54" y="47.84" width="9.83" height="35.27"/>
      <path class="cls-1" d="M244.93,47.84h-15.12v35.27h9.78v-10.08h4.84c8.77,0,15.17-4.38,15.17-12.7v-.1c0-7.81-5.74-12.4-14.66-12.4ZM249.82,60.79c0,2.77-2.12,4.59-5.59,4.59h-4.63v-9.32h4.58c3.53,0,5.64,1.61,5.64,4.64v.1Z"/>
      <path class="cls-1" d="M286.19,67.69c0,4.94-2.57,7.26-6.5,7.26s-6.5-2.42-6.5-7.51v-19.6h-9.93v19.8c0,11.03,6.3,16.12,16.33,16.12s16.53-4.99,16.53-16.38v-19.55h-9.93v19.85Z"/>
      <polygon class="cls-1" points="311.69 47.84 301.91 47.84 301.91 83.11 328.77 83.11 328.77 74.54 311.69 74.54 311.69 47.84"/>
      <path class="cls-1" d="M345.14,47.59l-15.02,35.52h10.28l2.52-6.3h13.61l2.57,6.3h10.48l-15.01-35.52h-9.42ZM345.8,69.2l3.98-10.03,3.93,10.03h-7.91Z"/>
      <path class="cls-1" d="M386.61,47.84h-13.61v35.27h13.4c12.7,0,20.11-7.56,20.11-17.74v-.1c0-10.18-7.31-17.44-19.9-17.44ZM396.48,65.52c0,5.69-3.88,8.92-9.73,8.92h-3.98v-17.94h3.98c5.85,0,9.73,3.27,9.73,8.92v.1Z"/>
      <path class="cls-1" d="M429.38,47.13c-10.88,0-19.05,8.21-19.05,18.34v.1c0,10.13,8.06,18.24,18.95,18.24s19.05-8.21,19.05-18.34v-.1c0-10.13-8.06-18.24-18.95-18.24ZM438.35,65.58c0,5.09-3.58,9.42-8.97,9.42s-9.02-4.43-9.02-9.52v-.1c0-5.09,3.58-9.42,8.92-9.42s9.07,4.43,9.07,9.52v.1Z"/>
    </g>
  </g>
</svg>